{
  "accessors": [
    {
      "bufferView": 2,
      "componentType": 5126,
      "count": 33889,
      "max": [
        0.12987668812274933,
        0.04676850512623787,
        0.12746793031692505
      ],
      "min": [
        -0.10217943787574768,
        -0.18341007828712463,
        -0.15804487466812134
      ],
      "type": "VEC3"
    },
    {
      "bufferView": 2,
      "byteOffset": 406668,
      "componentType": 5126,
      "count": 33889,
      "type": "VEC3"
    },
    {
      "bufferView": 3,
      "componentType": 5126,
      "count": 33889,
      "type": "VEC4"
    },
    {
      "bufferView": 1,
      "componentType": 5126,
      "count": 33889,
      "type": "VEC2"
    },
    {
      "bufferView": 1,
      "byteOffset": 271112,
      "componentType": 5126,
      "count": 33889,
      "type": "VEC2"
    },
    {
      "bufferView": 1,
      "byteOffset": 542224,
      "componentType": 5126,
      "count": 33889,
      "type": "VEC2"
    },
    {
      "bufferView": 0,
      "componentType": 5125,
      "count": 108612,
      "type": "SCALAR"
    }
  ],
  "asset": {
    "generator": "fab-model-conversion",
    "version": "2.0"
  },
  "bufferViews": [
    {
      "buffer": 0,
      "byteLength": 434448,
      "target": 34963
    },
    {
      "buffer": 0,
      "byteLength": 813336,
      "byteOffset": 434448,
      "byteStride": 8,
      "target": 34962
    },
    {
      "buffer": 0,
      "byteLength": 813336,
      "byteOffset": 1247784,
      "byteStride": 12,
      "target": 34962
    },
    {
      "buffer": 0,
      "byteLength": 542224,
      "byteOffset": 2061120,
      "byteStride": 16,
      "target": 34962
    }
  ],
  "buffers": [
    {
      "byteLength": 2603344,
      "uri": "scene.bin"
    }
  ],
  "images": [
    {
      "uri": "textures/M_Noodles_baseColor.png"
    },
    {
      "uri": "textures/M_Noodles_metallicRoughness.png"
    },
    {
      "uri": "textures/M_Noodles_normal.png"
    }
  ],
  "materials": [
    {
      "doubleSided": true,
      "name": "M_Noodles",
      "normalTexture": {
        "index": 2
      },
      "pbrMetallicRoughness": {
        "baseColorTexture": {
          "index": 0
        },
        "metallicRoughnessTexture": {
          "index": 1
        }
      }
    }
  ],
  "meshes": [
    {
      "name": "Cube.001_M_Noodles_0",
      "primitives": [
        {
          "attributes": {
            "NORMAL": 1,
            "POSITION": 0,
            "TANGENT": 2,
            "TEXCOORD_0": 3,
            "TEXCOORD_1": 4,
            "TEXCOORD_2": 5
          },
          "indices": 6,
          "material": 0,
          "mode": 4
        }
      ]
    }
  ],
  "nodes": [
    {
      "children": [
        1
      ],
      "matrix": [
        1.0,
        0.0,
        0.0,
        0.0,
        0.0,
        2.220446049250313e-16,
        -1.0,
        0.0,
        0.0,
        1.0,
        2.220446049250313e-16,
        0.0,
        0.0,
        0.0,
        0.0,
        1.0
      ],
      "name": "Sketchfab_model"
    },
    {
      "children": [
        2
      ],
      "matrix": [
        0.009999999776482582,
        0.0,
        0.0,
        0.0,
        0.0,
        0.0,
        0.009999999776482582,
        0.0,
        0.0,
        -0.009999999776482582,
        0.0,
        0.0,
        0.0,
        0.0,
        0.0,
        1.0
      ],
      "name": "7136f10fb1c84c32af95edc1a41f43c1.fbx"
    },
    {
      "children": [
        3
      ],
      "name": "RootNode"
    },
    {
      "children": [
        4
      ],
      "matrix": [
        99.78876347799428,
        6.034934970391235,
        -2.4049468424538074,
        0.0,
        -1.4712079300736578,
        -15.064580261687976,
        -98.84783239285343,
        0.0,
        -6.327697069117439,
        98.6744039100294,
        -14.943970784294747,
        0.0,
        -1.2818108797073364,
        13.881540298461914,
        -6.268732070922852,
        1.0
      ],
      "name": "Cube.001"
    },
    {
      "mesh": 0,
      "name": "Cube.001_M_Noodles_0"
    }
  ],
  "samplers": [
    {
      "magFilter": 9729,
      "minFilter": 9987,
      "wrapS": 10497,
      "wrapT": 10497
    }
  ],
  "scene": 0,
  "scenes": [
    {
      "name": "Sketchfab_Scene",
      "nodes": [
        0
      ]
    }
  ],
  "textures": [
    {
      "sampler": 0,
      "source": 0
    },
    {
      "sampler": 0,
      "source": 1
    },
    {
      "sampler": 0,
      "source": 2
    }
  ]
}
