{
  "accessors": [
    {
      "bufferView": 2,
      "componentType": 5126,
      "count": 2033,
      "max": [
        13.00374698638916,
        7.4921369552612305,
        12.998038291931152
      ],
      "min": [
        -13.00374698638916,
        -7.492137908935547,
        -12.998038291931152
      ],
      "type": "VEC3"
    },
    {
      "bufferView": 2,
      "byteOffset": 24396,
      "componentType": 5126,
      "count": 2033,
      "type": "VEC3"
    },
    {
      "bufferView": 3,
      "componentType": 5126,
      "count": 2033,
      "type": "VEC4"
    },
    {
      "bufferView": 1,
      "componentType": 5126,
      "count": 2033,
      "type": "VEC2"
    },
    {
      "bufferView": 1,
      "byteOffset": 16264,
      "componentType": 5126,
      "count": 2033,
      "type": "VEC2"
    },
    {
      "bufferView": 1,
      "byteOffset": 32528,
      "componentType": 5126,
      "count": 2033,
      "type": "VEC2"
    },
    {
      "bufferView": 0,
      "componentType": 5125,
      "count": 2472,
      "type": "SCALAR"
    }
  ],
  "asset": {
    "generator": "fab-model-conversion",
    "version": "2.0"
  },
  "bufferViews": [
    {
      "buffer": 0,
      "byteLength": 9888,
      "target": 34963
    },
    {
      "buffer": 0,
      "byteLength": 48792,
      "byteOffset": 9888,
      "byteStride": 8,
      "target": 34962
    },
    {
      "buffer": 0,
      "byteLength": 48792,
      "byteOffset": 58680,
      "byteStride": 12,
      "target": 34962
    },
    {
      "buffer": 0,
      "byteLength": 32528,
      "byteOffset": 107472,
      "byteStride": 16,
      "target": 34962
    }
  ],
  "buffers": [
    {
      "byteLength": 140000,
      "uri": "scene.bin"
    }
  ],
  "images": [
    {
      "uri": "textures/Shelf_baseColor.png"
    },
    {
      "uri": "textures/Shelf_metallicRoughness.png"
    },
    {
      "uri": "textures/Shelf_normal.png"
    }
  ],
  "materials": [
    {
      "doubleSided": true,
      "name": "Shelf",
      "normalTexture": {
        "index": 2
      },
      "occlusionTexture": {
        "index": 1
      },
      "pbrMetallicRoughness": {
        "baseColorTexture": {
          "index": 0
        },
        "metallicFactor": 0.0,
        "metallicRoughnessTexture": {
          "index": 1
        }
      }
    }
  ],
  "meshes": [
    {
      "name": "Shelf_Shelf_0",
      "primitives": [
        {
          "attributes": {
            "NORMAL": 1,
            "POSITION": 0,
            "TANGENT": 2,
            "TEXCOORD_0": 3,
            "TEXCOORD_1": 4,
            "TEXCOORD_2": 5
          },
          "indices": 6,
          "material": 0,
          "mode": 4
        }
      ]
    }
  ],
  "nodes": [
    {
      "children": [
        1
      ],
      "matrix": [
        1.0,
        0.0,
        0.0,
        0.0,
        0.0,
        2.220446049250313e-16,
        -1.0,
        0.0,
        0.0,
        1.0,
        2.220446049250313e-16,
        0.0,
        0.0,
        0.0,
        0.0,
        1.0
      ],
      "name": "Sketchfab_model"
    },
    {
      "children": [
        2
      ],
      "matrix": [
        1.0,
        0.0,
        0.0,
        0.0,
        0.0,
        0.0,
        1.0,
        0.0,
        0.0,
        -1.0,
        0.0,
        0.0,
        0.0,
        0.0,
        0.0,
        1.0
      ],
      "name": "0f019d7c6da5460283245caa859d32f9.fbx"
    },
    {
      "children": [
        3
      ],
      "name": "RootNode"
    },
    {
      "children": [
        4
      ],
      "matrix": [
        0.03175000101327896,
        0.0,
        0.0,
        0.0,
        0.0,
        7.04991643136287e-18,
        -0.03175000101327896,
        0.0,
        0.0,
        0.03175000101327896,
        7.04991643136287e-18,
        0.0,
        0.0,
        0.41268935799598694,
        3.55689211417598e-09,
        1.0
      ],
      "name": "Shelf"
    },
    {
      "mesh": 0,
      "name": "Shelf_Shelf_0"
    }
  ],
  "samplers": [
    {
      "magFilter": 9729,
      "minFilter": 9987,
      "wrapS": 10497,
      "wrapT": 10497
    }
  ],
  "scene": 0,
  "scenes": [
    {
      "name": "Sketchfab_Scene",
      "nodes": [
        0
      ]
    }
  ],
  "textures": [
    {
      "sampler": 0,
      "source": 0
    },
    {
      "sampler": 0,
      "source": 1
    },
    {
      "sampler": 0,
      "source": 2
    }
  ]
}
